<svg width="26" height="24" viewBox="0 0 26 24" fill="none" xmlns="http://www.w3.org/2000/svg">
<g clip-path="url(#clip0_7022_177)">
<path d="M1878 23.989C1878 23.9951 1878 24 1877.99 24C1877.98 24 1877.98 23.9953 1877.98 23.9894C1877.45 10.6509 1866.47 7.6044e-06 1853 0H1600.91C1595.84 0 1591.68 -3.83269 1590.2 -8.67389C1583.93 -29.1276 1564.9 -43.9999 1542.39 -44H540.041C517.533 -44 498.499 -29.1276 492.229 -8.6739C490.745 -3.83271 486.586 0 481.522 0H25C11.5314 2.27818e-07 0.55223 10.6509 0.0219028 23.9894C0.0216691 23.9953 0.0168353 24 0.0109534 24C0.00490401 24 0 23.9951 0 23.989V-61C0 -66.5228 4.47715 -71 10 -71H1868C1873.52 -71 1878 -66.5228 1878 -61V23.989Z" fill="#7027E2"/>
</g>
<defs>
<clipPath id="clip0_7022_177">
<rect width="1878" height="95" fill="white" transform="translate(0 -71)"/>
</clipPath>
</defs>
</svg>
