<svg width="68" height="71" viewBox="0 0 68 71" fill="none" xmlns="http://www.w3.org/2000/svg">
<g clip-path="url(#clip0_7018_151)">
<path d="M1449 94.989C1449 94.9951 1449 95 1448.99 95C1448.98 95 1448.98 94.9953 1448.98 94.9894C1448.45 81.6509 1437.47 71 1424 71H1162.93C1157.87 71 1153.71 67.1673 1152.23 62.3261C1145.96 41.8725 1126.92 27.0002 1104.42 27H67.4355C44.9277 27.0002 25.8941 41.8725 19.6245 62.3261C18.1405 67.1673 13.9812 71 8.91765 71H-463C-476.469 71 -487.448 81.6509 -487.978 94.9894C-487.978 94.9953 -487.983 95 -487.989 95C-487.995 95 -488 94.9951 -488 94.989V10C-488 4.47715 -483.523 0 -478 0H1439C1444.52 0 1449 4.47715 1449 10V94.989Z" fill="#7027E2"/>
</g>
<defs>
<clipPath id="clip0_7018_151">
<rect width="68" height="71" fill="white"/>
</clipPath>
</defs>
</svg>
