<svg width="26" height="24" viewBox="0 0 26 24" fill="none" xmlns="http://www.w3.org/2000/svg">
<g clip-path="url(#clip0_7022_177)">
<path d="M26 23.989C26 23.9951 25.9951 24 25.989 24C25.9832 24 25.9783 23.9953 25.9781 23.9894C25.4478 10.6509 14.4686 7.6044e-06 1 0H-251.094C-256.158 0 -260.317 -3.83269 -261.801 -8.67389C-268.071 -29.1276 -287.104 -43.9999 -309.612 -44H-1311.96C-1334.47 -44 -1353.5 -29.1276 -1359.77 -8.6739C-1361.26 -3.83271 -1365.41 0 -1370.48 0H-1827C-1840.47 2.27818e-07 -1851.45 10.6509 -1851.98 23.9894C-1851.98 23.9953 -1851.98 24 -1851.99 24C-1852 24 -1852 23.9951 -1852 23.989V-61C-1852 -66.5228 -1847.52 -71 -1842 -71H15.9999C21.5228 -71 26 -66.5228 26 -61V23.989Z" fill="#7027E2"/>
</g>
<defs>
<clipPath id="clip0_7022_177">
<rect width="1878" height="95" fill="white" transform="translate(-1852 -71)"/>
</clipPath>
</defs>
</svg>
