<svg width="68" height="71" viewBox="0 0 68 71" fill="none" xmlns="http://www.w3.org/2000/svg">
<g clip-path="url(#clip0_7018_151)">
<path d="M-1381 94.989C-1381 94.9951 -1381 95 -1380.99 95C-1380.98 95 -1380.98 94.9953 -1380.98 94.9894C-1380.45 81.6509 -1369.47 71 -1356 71H-1094.93C-1089.87 71 -1085.71 67.1673 -1084.23 62.3261C-1077.96 41.8725 -1058.92 27.0002 -1036.42 27H0.564453C23.0723 27.0002 42.1059 41.8725 48.3755 62.3261C49.8595 67.1673 54.0188 71 59.0824 71H531C544.469 71 555.448 81.6509 555.978 94.9894C555.978 94.9953 555.983 95 555.989 95C555.995 95 556 94.9951 556 94.989V10C556 4.47715 551.523 0 546 0H-1371C-1376.52 0 -1381 4.47715 -1381 10V94.989Z" fill="#7027E2"/>
</g>
<defs>
<clipPath id="clip0_7018_151">
<rect width="68" height="71" fill="white" transform="matrix(-1 0 0 1 68 0)"/>
</clipPath>
</defs>
</svg>
